<mxfile host="65bd71144e">
    <diagram id="FsfQrV8Gz_uJQ-x6BshP" name="add-professor">
        <mxGraphModel dx="1864" dy="1581" grid="1" gridSize="10" guides="1" tooltips="1" connect="1" arrows="1" fold="1" page="0" pageScale="1" pageWidth="850" pageHeight="1100" math="0" shadow="0">
            <root>
                <mxCell id="0"/>
                <mxCell id="1" parent="0"/>
                <mxCell id="99" value="" style="group" parent="1" vertex="1" connectable="0">
                    <mxGeometry x="-140" y="30" width="400" height="320" as="geometry"/>
                </mxCell>
                <mxCell id="98" value="" style="group" parent="99" vertex="1" connectable="0">
                    <mxGeometry width="399.99999999999994" height="320" as="geometry"/>
                </mxCell>
                <mxCell id="26" value="" style="rounded=0;whiteSpace=wrap;html=1;fillColor=#f8cecc;strokeColor=#b85450;" parent="98" vertex="1">
                    <mxGeometry y="33.10344827586207" width="399.99999999999994" height="286.8965517241379" as="geometry"/>
                </mxCell>
                <mxCell id="97" value="Data" style="text;html=1;strokeColor=none;fillColor=none;align=center;verticalAlign=middle;whiteSpace=wrap;rounded=0;fontColor=#FFFFFF;" parent="98" vertex="1">
                    <mxGeometry x="342.85714285714283" width="57.142857142857146" height="33.10344827586207" as="geometry"/>
                </mxCell>
                <mxCell id="28" value="AddProfessorRepo" style="rounded=1;whiteSpace=wrap;dashed=1;html=1;fillColor=#f5f5f5;fontColor=#333333;strokeColor=#666666;" parent="98" vertex="1">
                    <mxGeometry x="37.14411255411254" y="69.99689655172415" width="142.85714285714283" height="66.20689655172414" as="geometry"/>
                </mxCell>
                <mxCell id="NS_z2Z3GyRTqCFLhcO67-184" style="edgeStyle=orthogonalEdgeStyle;shape=connector;rounded=1;html=1;exitX=0.75;exitY=0;exitDx=0;exitDy=0;entryX=0.5;entryY=1;entryDx=0;entryDy=0;labelBackgroundColor=default;strokeColor=#b85450;strokeWidth=2;fontFamily=Helvetica;fontSize=11;fontColor=default;endArrow=classic;fillColor=#f8cecc;" edge="1" parent="98" source="27" target="NS_z2Z3GyRTqCFLhcO67-183">
                    <mxGeometry relative="1" as="geometry"/>
                </mxCell>
                <mxCell id="27" value="DbAddProfessor" style="rounded=0;whiteSpace=wrap;html=1;fillColor=#f5f5f5;fontColor=#333333;strokeColor=#666666;" parent="98" vertex="1">
                    <mxGeometry x="117.14" y="209.66" width="141.79" height="66.21" as="geometry"/>
                </mxCell>
                <mxCell id="132" style="edgeStyle=orthogonalEdgeStyle;shape=connector;rounded=1;html=1;exitX=0.5;exitY=0;exitDx=0;exitDy=0;entryX=0.5;entryY=1;entryDx=0;entryDy=0;labelBackgroundColor=default;strokeColor=#b85450;strokeWidth=2;fontFamily=Helvetica;fontSize=12;fontColor=#333333;endArrow=classic;fillColor=#f8cecc;" parent="98" source="27" target="28" edge="1">
                    <mxGeometry relative="1" as="geometry"/>
                </mxCell>
                <mxCell id="NS_z2Z3GyRTqCFLhcO67-183" value="CheckProfessorByEmailRepo" style="rounded=1;whiteSpace=wrap;dashed=1;html=1;fillColor=#f5f5f5;fontColor=#333333;strokeColor=#666666;" vertex="1" parent="98">
                    <mxGeometry x="200" y="70" width="170" height="66.21" as="geometry"/>
                </mxCell>
                <mxCell id="102" value="" style="group" parent="1" vertex="1" connectable="0">
                    <mxGeometry x="360" y="100" width="350" height="250" as="geometry"/>
                </mxCell>
                <mxCell id="100" value="" style="group" parent="102" vertex="1" connectable="0">
                    <mxGeometry y="30" width="350" height="220" as="geometry"/>
                </mxCell>
                <mxCell id="92" value="" style="rounded=0;whiteSpace=wrap;html=1;fillColor=#fff2cc;strokeColor=#d6b656;" parent="100" vertex="1">
                    <mxGeometry width="350" height="220" as="geometry"/>
                </mxCell>
                <mxCell id="93" value="AddProfessor" style="rounded=1;whiteSpace=wrap;html=1;dashed=1;fillColor=#f5f5f5;fontColor=#333333;strokeColor=#666666;" parent="100" vertex="1">
                    <mxGeometry x="115" y="80" width="120" height="60" as="geometry"/>
                </mxCell>
                <mxCell id="101" value="Domain" style="text;html=1;strokeColor=none;fillColor=none;align=center;verticalAlign=middle;whiteSpace=wrap;rounded=0;fontColor=#FFFFFF;" parent="102" vertex="1">
                    <mxGeometry x="290" width="60" height="30" as="geometry"/>
                </mxCell>
                <mxCell id="105" value="Prisma" style="rounded=0;whiteSpace=wrap;html=1;fillColor=#bac8d3;strokeColor=#000000;fontColor=#000000;" parent="1" vertex="1">
                    <mxGeometry x="-83.57" y="-360" width="100" height="60" as="geometry"/>
                </mxCell>
                <mxCell id="110" value="" style="group;fontColor=#FFFFFF;" parent="1" vertex="1" connectable="0">
                    <mxGeometry x="-130" y="-250" width="400" height="220" as="geometry"/>
                </mxCell>
                <mxCell id="108" value="" style="group" parent="110" vertex="1" connectable="0">
                    <mxGeometry y="30" width="400" height="190" as="geometry"/>
                </mxCell>
                <mxCell id="103" value="" style="rounded=0;whiteSpace=wrap;html=1;fillColor=#dae8fc;strokeColor=#6c8ebf;" parent="108" vertex="1">
                    <mxGeometry width="400" height="190" as="geometry"/>
                </mxCell>
                <mxCell id="104" value="ProfessorPrismaRepo" style="rounded=0;whiteSpace=wrap;html=1;fillColor=#f5f5f5;fontColor=#333333;strokeColor=#666666;" parent="108" vertex="1">
                    <mxGeometry x="22.86" y="65" width="147.14" height="60" as="geometry"/>
                </mxCell>
                <mxCell id="NS_z2Z3GyRTqCFLhcO67-179" value="EmailValidatorAdapter" style="rounded=0;whiteSpace=wrap;html=1;fillColor=#f5f5f5;fontColor=#333333;strokeColor=#666666;" vertex="1" parent="108">
                    <mxGeometry x="220" y="65" width="154.77" height="60" as="geometry"/>
                </mxCell>
                <mxCell id="109" value="Infra" style="text;html=1;strokeColor=none;fillColor=none;align=center;verticalAlign=middle;whiteSpace=wrap;rounded=0;fontColor=#FFFFFF;" parent="110" vertex="1">
                    <mxGeometry x="342.85714285714283" width="57.14285714285714" height="30" as="geometry"/>
                </mxCell>
                <mxCell id="114" value="" style="group" parent="1" vertex="1" connectable="0">
                    <mxGeometry x="900" y="70" width="470" height="330" as="geometry"/>
                </mxCell>
                <mxCell id="113" value="Presentation" style="text;html=1;strokeColor=none;fillColor=none;align=center;verticalAlign=middle;whiteSpace=wrap;rounded=0;dashed=1;fontColor=#FFFFFF;" parent="114" vertex="1">
                    <mxGeometry x="390" width="80" height="30" as="geometry"/>
                </mxCell>
                <mxCell id="128" value="" style="group" parent="114" vertex="1" connectable="0">
                    <mxGeometry y="30" width="470" height="300" as="geometry"/>
                </mxCell>
                <mxCell id="112" value="" style="rounded=0;whiteSpace=wrap;html=1;fillColor=#d5e8d4;strokeColor=#82b366;" parent="128" vertex="1">
                    <mxGeometry width="470" height="300" as="geometry"/>
                </mxCell>
                <mxCell id="140" style="edgeStyle=orthogonalEdgeStyle;shape=connector;rounded=1;html=1;exitX=0.25;exitY=1;exitDx=0;exitDy=0;labelBackgroundColor=default;strokeColor=#82b366;strokeWidth=2;fontFamily=Helvetica;fontSize=12;fontColor=#333333;endArrow=classic;fillColor=#d5e8d4;" parent="128" source="115" target="136" edge="1">
                    <mxGeometry relative="1" as="geometry"/>
                </mxCell>
                <mxCell id="NS_z2Z3GyRTqCFLhcO67-169" style="edgeStyle=none;html=1;exitX=1;exitY=0.5;exitDx=0;exitDy=0;entryX=0;entryY=0.5;entryDx=0;entryDy=0;strokeWidth=2;fillColor=#d5e8d4;strokeColor=#82b366;" edge="1" parent="128" source="115" target="NS_z2Z3GyRTqCFLhcO67-167">
                    <mxGeometry relative="1" as="geometry"/>
                </mxCell>
                <mxCell id="115" value="AddProfessorController" style="rounded=0;whiteSpace=wrap;html=1;fontColor=#333333;fillColor=#f5f5f5;strokeColor=#666666;" parent="128" vertex="1">
                    <mxGeometry x="57.5" y="60" width="165" height="60" as="geometry"/>
                </mxCell>
                <mxCell id="117" value="HttpResponse" style="rounded=1;whiteSpace=wrap;html=1;fontColor=#333333;fillColor=#f5f5f5;strokeColor=#666666;dashed=1;" parent="128" vertex="1">
                    <mxGeometry x="193" y="190" width="90" height="50" as="geometry"/>
                </mxCell>
                <mxCell id="123" value="Controller" style="rounded=1;whiteSpace=wrap;html=1;fontColor=#333333;fillColor=#f5f5f5;strokeColor=#666666;dashed=1;" parent="128" vertex="1">
                    <mxGeometry x="295" y="190" width="85" height="50" as="geometry"/>
                </mxCell>
                <mxCell id="125" style="edgeStyle=orthogonalEdgeStyle;html=1;exitX=0.5;exitY=1;exitDx=0;exitDy=0;fontFamily=Helvetica;fontSize=12;fontColor=#333333;fillColor=#d5e8d4;strokeColor=#82b366;strokeWidth=2;" parent="128" source="115" target="117" edge="1">
                    <mxGeometry relative="1" as="geometry"/>
                </mxCell>
                <mxCell id="126" style="shape=connector;rounded=1;html=1;exitX=0.75;exitY=1;exitDx=0;exitDy=0;entryX=0.25;entryY=0;entryDx=0;entryDy=0;labelBackgroundColor=default;strokeColor=#82b366;fontFamily=Helvetica;fontSize=12;fontColor=#333333;endArrow=classic;fillColor=#d5e8d4;strokeWidth=2;edgeStyle=orthogonalEdgeStyle;" parent="128" source="115" target="123" edge="1">
                    <mxGeometry relative="1" as="geometry">
                        <Array as="points">
                            <mxPoint x="181" y="140"/>
                            <mxPoint x="316" y="140"/>
                        </Array>
                    </mxGeometry>
                </mxCell>
                <mxCell id="136" value="HttpRequest" style="rounded=1;whiteSpace=wrap;html=1;fontColor=#333333;fillColor=#f5f5f5;strokeColor=#666666;dashed=1;" parent="128" vertex="1">
                    <mxGeometry x="95" y="190" width="90" height="50" as="geometry"/>
                </mxCell>
                <mxCell id="NS_z2Z3GyRTqCFLhcO67-167" value="Validation" style="rounded=1;whiteSpace=wrap;html=1;dashed=1;fillColor=#f5f5f5;fontColor=#333333;strokeColor=#666666;" vertex="1" parent="128">
                    <mxGeometry x="295" y="60" width="120" height="60" as="geometry"/>
                </mxCell>
                <mxCell id="129" style="edgeStyle=orthogonalEdgeStyle;rounded=1;html=1;exitX=0;exitY=0.5;exitDx=0;exitDy=0;entryX=1;entryY=0.5;entryDx=0;entryDy=0;labelBackgroundColor=default;strokeColor=#82b366;fontFamily=Helvetica;fontSize=12;fontColor=#333333;endArrow=classic;fillColor=#d5e8d4;strokeWidth=2;" parent="1" source="115" target="93" edge="1">
                    <mxGeometry relative="1" as="geometry"/>
                </mxCell>
                <mxCell id="130" style="edgeStyle=orthogonalEdgeStyle;shape=connector;rounded=1;html=1;exitX=1;exitY=0.5;exitDx=0;exitDy=0;entryX=0;entryY=0.5;entryDx=0;entryDy=0;labelBackgroundColor=default;strokeColor=#b85450;fontFamily=Helvetica;fontSize=12;fontColor=#333333;endArrow=classic;fillColor=#f8cecc;strokeWidth=2;" parent="1" source="27" target="93" edge="1">
                    <mxGeometry relative="1" as="geometry">
                        <Array as="points">
                            <mxPoint x="320" y="273"/>
                            <mxPoint x="320" y="240"/>
                        </Array>
                    </mxGeometry>
                </mxCell>
                <mxCell id="133" style="edgeStyle=orthogonalEdgeStyle;shape=connector;rounded=1;html=1;exitX=0.5;exitY=0;exitDx=0;exitDy=0;entryX=0.5;entryY=1;entryDx=0;entryDy=0;labelBackgroundColor=default;strokeColor=#6c8ebf;strokeWidth=2;fontFamily=Helvetica;fontSize=12;fontColor=#333333;endArrow=classic;fillColor=#dae8fc;" parent="1" source="104" target="105" edge="1">
                    <mxGeometry relative="1" as="geometry"/>
                </mxCell>
                <mxCell id="134" style="edgeStyle=orthogonalEdgeStyle;shape=connector;rounded=1;html=1;exitX=0.5;exitY=1;exitDx=0;exitDy=0;labelBackgroundColor=default;strokeColor=#6c8ebf;strokeWidth=2;fontFamily=Helvetica;fontSize=12;fontColor=#333333;endArrow=classic;fillColor=#dae8fc;" parent="1" source="104" target="28" edge="1">
                    <mxGeometry relative="1" as="geometry">
                        <Array as="points">
                            <mxPoint x="-34" y="50"/>
                            <mxPoint x="-34" y="50"/>
                        </Array>
                    </mxGeometry>
                </mxCell>
                <mxCell id="146" value="&lt;font color=&quot;#000000&quot;&gt;Express&lt;/font&gt;" style="rounded=0;whiteSpace=wrap;html=1;strokeColor=#000000;fontFamily=Helvetica;fontSize=12;fillColor=#bac8d3;" parent="1" vertex="1">
                    <mxGeometry x="1440" y="520" width="140" height="60" as="geometry"/>
                </mxCell>
                <mxCell id="154" value="" style="group" parent="1" vertex="1" connectable="0">
                    <mxGeometry x="680" y="470" width="700" height="260" as="geometry"/>
                </mxCell>
                <mxCell id="141" value="" style="rounded=0;whiteSpace=wrap;html=1;strokeColor=#9673a6;fontFamily=Helvetica;fontSize=12;fillColor=#e1d5e7;" parent="154" vertex="1">
                    <mxGeometry y="30" width="700" height="230" as="geometry"/>
                </mxCell>
                <mxCell id="142" value="App" style="rounded=0;whiteSpace=wrap;html=1;strokeColor=#666666;fontFamily=Helvetica;fontSize=12;fontColor=#333333;fillColor=#f5f5f5;" parent="154" vertex="1">
                    <mxGeometry x="50" y="115" width="120" height="60" as="geometry"/>
                </mxCell>
                <mxCell id="143" value="ProfessorRouter" style="rounded=0;whiteSpace=wrap;html=1;strokeColor=#666666;fontFamily=Helvetica;fontSize=12;fontColor=#333333;fillColor=#f5f5f5;" parent="154" vertex="1">
                    <mxGeometry x="215" y="115" width="145" height="60" as="geometry"/>
                </mxCell>
                <mxCell id="144" value="ExpressRouterAdapter" style="rounded=0;whiteSpace=wrap;html=1;strokeColor=#666666;fontFamily=Helvetica;fontSize=12;fontColor=#333333;fillColor=#f5f5f5;" parent="154" vertex="1">
                    <mxGeometry x="480" y="70" width="140" height="60" as="geometry"/>
                </mxCell>
                <mxCell id="145" value="AddProfessorFactory" style="rounded=0;whiteSpace=wrap;html=1;strokeColor=#666666;fontFamily=Helvetica;fontSize=12;fontColor=#333333;fillColor=#f5f5f5;" parent="154" vertex="1">
                    <mxGeometry x="480" y="160" width="145" height="60" as="geometry"/>
                </mxCell>
                <mxCell id="153" value="Main" style="text;html=1;strokeColor=none;fillColor=none;align=center;verticalAlign=middle;whiteSpace=wrap;rounded=0;fontFamily=Helvetica;fontSize=12;fontColor=#FFFFFF;" parent="154" vertex="1">
                    <mxGeometry x="640" width="60" height="30" as="geometry"/>
                </mxCell>
                <mxCell id="148" style="edgeStyle=orthogonalEdgeStyle;shape=connector;rounded=1;html=1;exitX=1;exitY=0.5;exitDx=0;exitDy=0;entryX=0;entryY=0.5;entryDx=0;entryDy=0;labelBackgroundColor=default;strokeColor=#9673a6;strokeWidth=2;fontFamily=Helvetica;fontSize=12;fontColor=#000000;endArrow=classic;fillColor=#e1d5e7;" parent="154" source="142" target="143" edge="1">
                    <mxGeometry relative="1" as="geometry"/>
                </mxCell>
                <mxCell id="151" style="edgeStyle=orthogonalEdgeStyle;shape=connector;rounded=1;html=1;exitX=1;exitY=0.25;exitDx=0;exitDy=0;labelBackgroundColor=default;strokeColor=#9673a6;strokeWidth=2;fontFamily=Helvetica;fontSize=12;fontColor=#000000;endArrow=classic;fillColor=#e1d5e7;" parent="154" source="143" target="144" edge="1">
                    <mxGeometry relative="1" as="geometry"/>
                </mxCell>
                <mxCell id="150" style="edgeStyle=orthogonalEdgeStyle;shape=connector;rounded=1;html=1;exitX=1;exitY=0.75;exitDx=0;exitDy=0;labelBackgroundColor=default;strokeColor=#9673a6;strokeWidth=2;fontFamily=Helvetica;fontSize=12;fontColor=#000000;endArrow=classic;fillColor=#e1d5e7;" parent="154" source="143" target="145" edge="1">
                    <mxGeometry relative="1" as="geometry"/>
                </mxCell>
                <mxCell id="147" style="edgeStyle=orthogonalEdgeStyle;shape=connector;rounded=1;html=1;exitX=1;exitY=0.5;exitDx=0;exitDy=0;labelBackgroundColor=default;strokeColor=#9673a6;strokeWidth=2;fontFamily=Helvetica;fontSize=12;fontColor=#000000;endArrow=classic;fillColor=#e1d5e7;" parent="1" source="144" target="146" edge="1">
                    <mxGeometry relative="1" as="geometry"/>
                </mxCell>
                <mxCell id="155" style="edgeStyle=orthogonalEdgeStyle;shape=connector;rounded=1;html=1;exitX=0;exitY=0.5;exitDx=0;exitDy=0;entryX=0;entryY=0.5;entryDx=0;entryDy=0;labelBackgroundColor=default;strokeColor=#9673a6;strokeWidth=2;fontFamily=Helvetica;fontSize=12;fontColor=#FFFFFF;endArrow=classic;fillColor=#e1d5e7;" parent="1" source="141" target="26" edge="1">
                    <mxGeometry relative="1" as="geometry">
                        <Array as="points">
                            <mxPoint x="-200" y="615"/>
                            <mxPoint x="-200" y="207"/>
                        </Array>
                    </mxGeometry>
                </mxCell>
                <mxCell id="158" style="edgeStyle=orthogonalEdgeStyle;shape=connector;rounded=1;html=1;exitX=0;exitY=0.75;exitDx=0;exitDy=0;entryX=0;entryY=0.5;entryDx=0;entryDy=0;labelBackgroundColor=default;strokeColor=#9673a6;strokeWidth=2;fontFamily=Helvetica;fontSize=12;fontColor=#FFFFFF;endArrow=classic;fillColor=#e1d5e7;" parent="1" source="141" target="103" edge="1">
                    <mxGeometry relative="1" as="geometry">
                        <Array as="points">
                            <mxPoint x="-270" y="672"/>
                            <mxPoint x="-270" y="-125"/>
                        </Array>
                    </mxGeometry>
                </mxCell>
                <mxCell id="159" style="edgeStyle=orthogonalEdgeStyle;shape=connector;rounded=1;html=1;exitX=0.25;exitY=0;exitDx=0;exitDy=0;labelBackgroundColor=default;strokeColor=#9673a6;strokeWidth=2;fontFamily=Helvetica;fontSize=12;fontColor=#FFFFFF;endArrow=classic;fillColor=#e1d5e7;" parent="1" source="144" target="136" edge="1">
                    <mxGeometry relative="1" as="geometry">
                        <Array as="points">
                            <mxPoint x="1195" y="460"/>
                            <mxPoint x="1050" y="460"/>
                        </Array>
                    </mxGeometry>
                </mxCell>
                <mxCell id="160" style="edgeStyle=orthogonalEdgeStyle;shape=connector;rounded=1;html=1;exitX=0.5;exitY=0;exitDx=0;exitDy=0;entryX=0.5;entryY=1;entryDx=0;entryDy=0;labelBackgroundColor=default;strokeColor=#9673a6;strokeWidth=2;fontFamily=Helvetica;fontSize=12;fontColor=#FFFFFF;endArrow=classic;fillColor=#e1d5e7;" parent="1" source="144" target="117" edge="1">
                    <mxGeometry relative="1" as="geometry"/>
                </mxCell>
                <mxCell id="161" style="edgeStyle=orthogonalEdgeStyle;shape=connector;rounded=1;html=1;exitX=0.75;exitY=0;exitDx=0;exitDy=0;entryX=0.5;entryY=1;entryDx=0;entryDy=0;labelBackgroundColor=default;strokeColor=#9673a6;strokeWidth=2;fontFamily=Helvetica;fontSize=12;fontColor=#FFFFFF;endArrow=classic;fillColor=#e1d5e7;" parent="1" source="144" target="123" edge="1">
                    <mxGeometry relative="1" as="geometry"/>
                </mxCell>
                <mxCell id="162" style="edgeStyle=orthogonalEdgeStyle;shape=connector;rounded=1;html=1;exitX=1;exitY=0.5;exitDx=0;exitDy=0;entryX=1;entryY=0.5;entryDx=0;entryDy=0;labelBackgroundColor=default;strokeColor=#9673a6;strokeWidth=2;fontFamily=Helvetica;fontSize=12;fontColor=#FFFFFF;endArrow=classic;fillColor=#e1d5e7;" parent="1" source="141" target="112" edge="1">
                    <mxGeometry relative="1" as="geometry">
                        <Array as="points">
                            <mxPoint x="1640" y="615"/>
                            <mxPoint x="1640" y="250"/>
                        </Array>
                    </mxGeometry>
                </mxCell>
                <mxCell id="NS_z2Z3GyRTqCFLhcO67-162" value="" style="group" vertex="1" connectable="0" parent="1">
                    <mxGeometry x="860" y="-300" width="500" height="270" as="geometry"/>
                </mxCell>
                <mxCell id="NS_z2Z3GyRTqCFLhcO67-163" value="" style="rounded=0;whiteSpace=wrap;html=1;strokeColor=#b46504;fontFamily=Helvetica;fontSize=12;fillColor=#fad7ac;" vertex="1" parent="NS_z2Z3GyRTqCFLhcO67-162">
                    <mxGeometry y="36.81818181818182" width="500" height="233.1818181818182" as="geometry"/>
                </mxCell>
                <mxCell id="NS_z2Z3GyRTqCFLhcO67-164" value="RequiredFieldValidation" style="rounded=0;whiteSpace=wrap;html=1;strokeColor=#666666;fontFamily=Helvetica;fontSize=12;fontColor=#333333;fillColor=#f5f5f5;" vertex="1" parent="NS_z2Z3GyRTqCFLhcO67-162">
                    <mxGeometry x="301.72" y="160" width="137.93" height="60" as="geometry"/>
                </mxCell>
                <mxCell id="NS_z2Z3GyRTqCFLhcO67-166" value="Validation" style="text;html=1;strokeColor=none;fillColor=none;align=center;verticalAlign=middle;whiteSpace=wrap;rounded=0;fontFamily=Helvetica;fontSize=12;fontColor=#FFFFFF;" vertex="1" parent="NS_z2Z3GyRTqCFLhcO67-162">
                    <mxGeometry x="439.65517241379314" width="60.344827586206904" height="36.81818181818182" as="geometry"/>
                </mxCell>
                <mxCell id="NS_z2Z3GyRTqCFLhcO67-176" style="edgeStyle=orthogonalEdgeStyle;shape=connector;rounded=1;html=1;exitX=0.5;exitY=0;exitDx=0;exitDy=0;entryX=0.5;entryY=1;entryDx=0;entryDy=0;labelBackgroundColor=default;strokeColor=#82b366;strokeWidth=2;fontFamily=Helvetica;fontSize=11;fontColor=default;endArrow=classic;fillColor=#d5e8d4;" edge="1" parent="NS_z2Z3GyRTqCFLhcO67-162" source="NS_z2Z3GyRTqCFLhcO67-172" target="NS_z2Z3GyRTqCFLhcO67-175">
                    <mxGeometry relative="1" as="geometry"/>
                </mxCell>
                <mxCell id="NS_z2Z3GyRTqCFLhcO67-177" value="" style="edgeStyle=orthogonalEdgeStyle;shape=connector;rounded=1;html=1;labelBackgroundColor=default;strokeColor=#d79b00;strokeWidth=2;fontFamily=Helvetica;fontSize=11;fontColor=default;endArrow=classic;fillColor=#ffe6cc;" edge="1" parent="NS_z2Z3GyRTqCFLhcO67-162" source="NS_z2Z3GyRTqCFLhcO67-172" target="NS_z2Z3GyRTqCFLhcO67-175">
                    <mxGeometry relative="1" as="geometry"/>
                </mxCell>
                <mxCell id="NS_z2Z3GyRTqCFLhcO67-172" value="EmailValidation" style="rounded=0;whiteSpace=wrap;html=1;strokeColor=#666666;fontFamily=Helvetica;fontSize=12;fontColor=#333333;fillColor=#f5f5f5;" vertex="1" parent="NS_z2Z3GyRTqCFLhcO67-162">
                    <mxGeometry x="40.01" y="160" width="137.93" height="60" as="geometry"/>
                </mxCell>
                <mxCell id="NS_z2Z3GyRTqCFLhcO67-175" value="EmailValidator" style="rounded=1;whiteSpace=wrap;html=1;strokeColor=#666666;fontFamily=Helvetica;fontSize=12;fontColor=#333333;fillColor=#f5f5f5;dashed=1;" vertex="1" parent="NS_z2Z3GyRTqCFLhcO67-162">
                    <mxGeometry x="40.01" y="60" width="137.93" height="60" as="geometry"/>
                </mxCell>
                <mxCell id="NS_z2Z3GyRTqCFLhcO67-174" style="edgeStyle=orthogonalEdgeStyle;shape=connector;rounded=1;html=1;exitX=0.75;exitY=1;exitDx=0;exitDy=0;entryX=0.25;entryY=0;entryDx=0;entryDy=0;labelBackgroundColor=default;strokeColor=#d79b00;strokeWidth=2;fontFamily=Helvetica;fontSize=11;fontColor=default;endArrow=classic;fillColor=#ffe6cc;" edge="1" parent="1" source="NS_z2Z3GyRTqCFLhcO67-172" target="NS_z2Z3GyRTqCFLhcO67-167">
                    <mxGeometry relative="1" as="geometry"/>
                </mxCell>
                <mxCell id="NS_z2Z3GyRTqCFLhcO67-178" style="edgeStyle=orthogonalEdgeStyle;shape=connector;rounded=1;html=1;exitX=0.75;exitY=1;exitDx=0;exitDy=0;entryX=0.75;entryY=0;entryDx=0;entryDy=0;labelBackgroundColor=default;strokeColor=#d79b00;strokeWidth=2;fontFamily=Helvetica;fontSize=11;fontColor=default;endArrow=classic;fillColor=#ffe6cc;" edge="1" parent="1" source="NS_z2Z3GyRTqCFLhcO67-164" target="NS_z2Z3GyRTqCFLhcO67-167">
                    <mxGeometry relative="1" as="geometry"/>
                </mxCell>
                <mxCell id="NS_z2Z3GyRTqCFLhcO67-180" value="Validator" style="rounded=0;whiteSpace=wrap;html=1;fillColor=#bac8d3;strokeColor=#000000;fontColor=#000000;" vertex="1" parent="1">
                    <mxGeometry x="117.39" y="-360" width="100" height="60" as="geometry"/>
                </mxCell>
                <mxCell id="NS_z2Z3GyRTqCFLhcO67-181" style="edgeStyle=orthogonalEdgeStyle;shape=connector;rounded=1;html=1;exitX=0.5;exitY=0;exitDx=0;exitDy=0;entryX=0.5;entryY=1;entryDx=0;entryDy=0;labelBackgroundColor=default;strokeColor=#6c8ebf;strokeWidth=2;fontFamily=Helvetica;fontSize=11;fontColor=default;endArrow=classic;fillColor=#dae8fc;" edge="1" parent="1" source="NS_z2Z3GyRTqCFLhcO67-179" target="NS_z2Z3GyRTqCFLhcO67-180">
                    <mxGeometry relative="1" as="geometry"/>
                </mxCell>
                <mxCell id="NS_z2Z3GyRTqCFLhcO67-182" style="edgeStyle=orthogonalEdgeStyle;shape=connector;rounded=1;html=1;exitX=1;exitY=0.5;exitDx=0;exitDy=0;entryX=0;entryY=0.5;entryDx=0;entryDy=0;labelBackgroundColor=default;strokeColor=#6c8ebf;strokeWidth=2;fontFamily=Helvetica;fontSize=11;fontColor=default;endArrow=classic;fillColor=#dae8fc;" edge="1" parent="1" source="NS_z2Z3GyRTqCFLhcO67-179" target="NS_z2Z3GyRTqCFLhcO67-175">
                    <mxGeometry relative="1" as="geometry"/>
                </mxCell>
                <mxCell id="NS_z2Z3GyRTqCFLhcO67-185" style="edgeStyle=orthogonalEdgeStyle;shape=connector;rounded=1;html=1;exitX=0.75;exitY=1;exitDx=0;exitDy=0;entryX=0.25;entryY=0;entryDx=0;entryDy=0;labelBackgroundColor=default;strokeColor=#6c8ebf;strokeWidth=2;fontFamily=Helvetica;fontSize=11;fontColor=default;endArrow=classic;fillColor=#dae8fc;" edge="1" parent="1" source="104" target="NS_z2Z3GyRTqCFLhcO67-183">
                    <mxGeometry relative="1" as="geometry"/>
                </mxCell>
            </root>
        </mxGraphModel>
    </diagram>
</mxfile>